# xmcd
#
# Track frame offsets:
#	150
#	11159
#	25346
#	47081
#	60814
#	77535
#	93782
#	108221
#	119721
#	132655
#	145591
#
# Disc length: 2094 seconds
#
# Revision: 0
# Processed by: cddbd v1.5.1PL0 Copyright (c) Steve Scherf et al.
# Submitted via: dBpowerAMP V4.0
#
DISCID=88082c0b
DTITLE=Brenda Lee - Greatest Country Songs
DYEAR=2004
DGENRE=Country
TTITLE0=Fool Number One
TTITLE1=End Of The World
TTITLE2=Big Four Poster Bed
TTITLE3=Nobody Wins
TTITLE4=Johnny One Time
TTITLE5=You Can Depend On Me
TTITLE6=I Want To Be Wanted
TTITLE7=Losing You
TTITLE8=Too Many Rivers
TTITLE9=Jambalaya
TTITLE10=As Usual
EXTD=Brenda Lee/Greatest Country Songs
EXTT0=
EXTT1=
EXTT2=
EXTT3=
EXTT4=
EXTT5=
EXTT6=
EXTT7=
EXTT8=
EXTT9=
EXTT10=
PLAYORDER=
